PathFileType	3	(X/Y/Z)	D:\Jess\Healthy\Labelled\HA07\20250404\SRRun01.trc
DataRate	CameraRate	NumFrames	NumMarkers	Units	OrigDataRate	OrigDataStartFrame	OrigNumFrames
250.0	250.0	6	33	mm	250.0	36563	2501
Frame#	Time	C7			T10			CLAV			LSHO			RSHO			LASIS			RASIS			LPSIS			RPSIS			LILCR			RILCR			LGTR			LTHI			LLTHI			LLEP			LPSH			LLSH			LDSH			LLMAL			LTOE			L5TH			LHEE			RGTR			RTHI			RLTHI			RLEP			RPSH			RLSH			RDSH			RLMAL			RTOE			R5TH			RHEE			
		X1	Y1	Z1	X2	Y2	Z2	X3	Y3	Z3	X4	Y4	Z4	X5	Y5	Z5	X6	Y6	Z6	X7	Y7	Z7	X8	Y8	Z8	X9	Y9	Z9	X10	Y10	Z10	X11	Y11	Z11	X12	Y12	Z12	X13	Y13	Z13	X14	Y14	Z14	X15	Y15	Z15	X16	Y16	Z16	X17	Y17	Z17	X18	Y18	Z18	X19	Y19	Z19	X20	Y20	Z20	X21	Y21	Z21	X22	Y22	Z22	X23	Y23	Z23	X24	Y24	Z24	X25	Y25	Z25	X26	Y26	Z26	X27	Y27	Z27	X28	Y28	Z28	X29	Y29	Z29	X30	Y30	Z30	X31	Y31	Z31	X32	Y32	Z32	X33	Y33	Z33	

1564	146.248	1080.755084341739	1413.58247767253	-330.9168075063028	1014.283306832301	1201.762393001279	-342.5897925308237	1203.300418901135	1332.702403228031	-285.0588815500742	1171.053162446069	1402.170809460073	-453.1840991999188	1084.699501242302	1396.862516290039	-173.4710552758723	1185.039485025406	953.2310919097289	-416.5160925222732	1157.594037959157	976.9514833086353	-197.3198234354848	1008.02525851439	1020.138776063962	-332.0042983896873	1003.701259075754	1018.851510311621	-290.3500658326567	1135.524569860564	990.8428615896181	-463.8005697687456	1095.199589363879	1012.596853476905	-160.936457584914	1096.098683063049	887.8962850870599	-486.3550576576275	1150.933461562453	721.3812350297977	-404.1494989767078	1021.047957998785	667.8167280322374	-454.1093921959611	947.8597423168212	522.1425320255178	-423.4130973096214	951.5457822889879	424.3656418925518	-376.2712245480192	818.3129968328157	383.1212644633604	-428.4343458958489	821.8497277043001	259.1562375369774	-368.6472923846634	724.9362177793496	199.4860041719005	-395.4704069960775	764.717268353289	73.96207056706619	-376.1243173884754	721.4043276282571	86.31497349674886	-410.5731514100505	664.308320785937	248.2982318577151	-348.3952788635139	1109.235863579918	907.8291395627658	-137.8373117128167	1249.084158319848	806.5523842186042	-218.6550305354885	1209.661753273625	679.53721583045	-160.3161646765247	1264.734088240296	519.3121612919655	-191.0961830543008	1313.047874827555	443.8037358523219	-248.4698298888112	1242.120660359995	342.2132114189798	-177.6466615631769	1295.49543913665	235.5187139873065	-249.2314955461634	1258.790418338235	135.556860241909	-218.9151960277207	1379.378200381339	104.6950879270845	-241.969894729274	1350.016432550845	71.06396918134423	-202.4831813552939	1180.372944104228	105.633326735039	-258.7053710927457	
1565	146.252	1080.829312866234	1414.237957058158	-330.8756633119231	1014.98090548343	1202.179337660313	-342.7318074190261	1203.314909544211	1333.797254706767	-284.4152441332164	1171.503637249304	1403.157031107124	-452.5708073266925	1084.282077132292	1397.455825093431	-173.4234378390352	1186.064965795365	953.8003094875793	-415.9636435193929	1158.092046745236	977.4690568418249	-197.3073057676755	1008.855103113558	1021.491545540224	-332.2187113948436	1004.427443743345	1020.10967802857	-290.5470279531946	1137.05334811291	991.8481244633894	-463.4525386187466	1095.898369136579	1013.42054648681	-161.0010240090768	1097.416625985362	888.9940454692868	-486.4580749909561	1151.351778416476	721.9516527131734	-403.5962848498303	1021.4958218457	668.8476938463198	-453.9652807618479	947.8108438411156	523.4156983183974	-423.2663246936589	950.1943864388086	425.5980469657568	-376.0541515861151	816.7414672324292	385.8375577919285	-428.8684385478691	818.4817146638911	261.853486281907	-369.2008071902249	721.280171353631	203.2438123783591	-396.6624874324077	757.9268245284743	76.43477489337265	-376.2535945014557	715.0811561380056	89.81159120048284	-411.0008410111139	661.625661432719	253.9232788474672	-350.4203067684744	1109.499148716938	908.506190921843	-137.7436828852095	1248.632413929473	804.8634567396334	-218.3633646392074	1208.150426426013	678.6609016267555	-159.5847999996436	1263.070430293025	518.1323537651026	-191.0450340097989	1312.711714334882	444.0640907827848	-248.9962336113617	1245.439830516867	340.5419261615687	-177.6115107143468	1301.707308728873	235.5763227224174	-249.832536893044	1268.680986734035	134.1061443356575	-219.4964460285677	1390.189106171083	107.6875565375241	-244.1535380308071	1362.591324761496	72.63807095497557	-204.5696722192381	1190.83344205105	101.4107283651242	-258.35120642192	
1566	146.256	1080.915733769199	1414.718428287247	-330.7747300175798	1015.629068684097	1202.448239970595	-342.8151339923476	1203.347675994002	1334.680562927368	-283.7919873789647	1171.914528523655	1403.938168284662	-451.9826441022233	1083.945030844936	1397.873722262722	-173.319381756937	1187.022054580569	954.2678398360111	-415.4268468291303	1158.535523466732	977.7897912769207	-197.248429691702	1009.59958815254	1022.624955388865	-332.3990482107162	1005.070164697326	1021.144017746024	-290.7127170046479	1138.460436812012	992.7090847141521	-463.1119397813468	1096.520554610638	1014.004219068051	-161.0341963539508	1098.695152951836	889.9320180769203	-486.5267428963322	1151.968874916892	722.4413650705362	-402.9935839465386	1022.27546175447	669.5719883906179	-453.7825257385936	948.249273782017	524.2959856279604	-423.1026362708415	949.1881133591237	426.4915398240074	-375.7623942503063	815.5322937091131	388.3418121931374	-429.3217263945591	815.2059964711107	264.4689531079449	-369.6413013325848	717.7044882428551	207.0120310614156	-397.8131374183939	751.3553197599925	79.15524681606544	-376.2376334142226	709.0422604860742	93.42685342941226	-411.3732106272008	658.9142571003706	259.4607615609357	-352.5503534529059	1109.698234829517	908.8919757212732	-137.6596451165304	1248.000783177681	802.8612710096191	-218.1693012962293	1206.650094131455	677.5561474323953	-158.7547414979833	1261.453164472684	516.8767421534554	-190.9895141801363	1312.305377017298	444.2345434128882	-249.512604230381	1248.451325796743	339.0427860811419	-177.6302300460329	1307.39123355453	235.7414055654637	-250.4236421686917	1277.831733150595	132.9338250323228	-220.0900814302898	1400.076954236002	110.6948785880313	-246.2530386209943	1374.183899318016	74.32896838649937	-206.6197942845405	1200.59595598386	97.62772259525423	-258.0966082374745	
1567	146.26	1081.015644603233	1415.024808722569	-330.6134104766836	1016.224017817759	1202.57395614211	-342.8428759263381	1203.397456528963	1335.348758274547	-283.1902140389261	1172.289431185926	1404.513318285704	-451.4193975506411	1083.687622582485	1398.115924357725	-173.1578306867527	1187.911313038115	954.6387618267451	-414.9058264723362	1158.914473433128	977.9249078360089	-197.1420838500309	1010.255962036947	1023.527325932244	-332.546056250683	1005.625010185492	1021.944160924503	-290.8480965984879	1139.742921128282	993.4245900119384	-462.7795933286922	1097.051966288275	1014.351992610976	-161.036607012876	1099.93674666474	890.704363538392	-486.5600168640325	1152.788065708437	722.8468510605115	-402.3407938228488	1023.38706222206	669.9853358330237	-453.5608167315274	949.1654244736471	524.7814376011604	-422.9237959149941	948.5203122425335	427.0446276787779	-375.4085000240202	814.678079771061	390.6409549421687	-429.7981421050526	812.0268269612986	267.0124474321422	-369.9787017397512	714.2088749198332	210.7944407626252	-398.9198429325597	745.0135934994581	82.12463765168128	-376.0727780233677	703.2888585528472	97.1515664082188	-411.6807276770639	656.1716486244022	264.9168891579793	-354.7774721298265	1109.827609672461	908.995847406308	-137.5839461914498	1247.202098743214	800.6024787643921	-218.0650892053368	1205.173886295636	676.2491969315392	-157.850366861337	1259.900968981583	515.5686918344682	-190.9357246631054	1311.847506262932	444.3191484068008	-250.0171092788121	1251.138878419374	337.6985949550697	-177.706249060604	1312.520215909997	235.9760162343513	-251.0063974672485	1286.176464086425	131.9907707454115	-220.6999888894316	1408.993931314346	113.6274764776816	-248.2444652373756	1384.717540981673	76.04817441809116	-208.6142258570186	1209.579320024805	94.2612665767501	-257.9649351114316	
1568	146.264	1081.130039526241	1415.158322331633	-330.3922995972027	1016.762592510368	1202.56108425133	-342.8180565154732	1203.462531993891	1335.799199595052	-282.6110821466639	1172.631690557381	1404.882360262348	-450.8803738745356	1083.508343229146	1398.182541190771	-172.9389688177766	1188.733916961369	954.9167668088196	-414.4004192249811	1159.219531922465	977.8856467453136	-196.9884096716229	1010.822889367374	1024.188068146949	-332.6617750152438	1006.089094816111	1022.500767164325	-290.9552953656708	1140.899848873178	993.9930479912574	-462.456421414517	1097.479505847114	1014.468903979012	-161.0097861827682	1101.144594446966	891.3048553096311	-486.5582758589942	1153.808889376896	723.1634879434806	-401.6395451341863	1024.824972137478	670.0868531621486	-453.3011084494987	950.5450866531194	524.8750909494377	-422.731987037952	948.1840632258661	427.2597613638506	-375.0068054223055	814.171417880445	392.7445028527248	-430.3012709471376	808.9531027039319	269.4945382678888	-370.2260575587544	710.7973872996506	214.5960191348008	-399.9818827391522	738.913174031824	85.34061539616842	-375.76064842532	697.8205732014632	100.97749083873	-411.9159383043302	653.4046429818667	270.300641038677	-357.0913506100351	1109.882136895114	908.829882496919	-137.5154460792944	1246.256632990684	798.1492728213533	-218.0383444286655	1203.735207145628	674.7696498565343	-156.9004740663663	1258.430370755812	514.2284988846126	-190.8893658072687	1311.354499811571	444.3181750411823	-250.5072256351617	1253.488232884483	336.4868490301549	-177.8420426312661	1317.071146626149	236.2380556502681	-251.5822263426312	1293.656762456231	131.2228397549361	-221.3301219757564	1416.901540634802	116.3947631191378	-250.1070026707974	1394.126103942011	77.70595058412349	-210.5346891570107	1217.709124206895	91.28285569038171	-257.9768560311048	
1569	146.268	1081.25948984053	1415.120321517917	-330.1131180410466	1017.242288015007	1202.413593302988	-342.7435161825414	1203.540747858284	1336.030101557419	-282.0557003179965	1172.944208362868	1405.045826071432	-450.3643950267393	1083.404899047234	1398.073960072959	-172.6641531689616	1189.49164854528	955.1037406355122	-413.9102951979784	1159.442281709991	977.682885386655	-196.7887858978913	1011.300526757631	1024.597743339527	-332.7495989074303	1006.461142291017	1022.805588012705	-291.0376762327052	1141.932233975924	994.412082073623	-462.1434881235312	1097.791521529751	1014.360681667315	-160.9561354099758	1102.322335677262	891.7267130793348	-486.5231868078629	1155.027043303906	723.3855592570845	-400.8935860539686	1026.577919086081	669.8788338410548	-453.0056952769381	952.3697405345806	524.5847264491113	-422.5299000815802	948.1722816563931	427.1430760609645	-374.5730164958308	814.0050307365692	394.6640542221398	-430.8341452063165	805.9981635152407	271.9259354202728	-370.39897787916	707.4785672770763	218.4227109376718	-401.0001983258434	733.0658382532682	88.79728793429953	-375.3083046422921	692.6355928924012	104.8976121001569	-412.0739932269101	650.6294205117548	275.6233367887815	-359.4792355068913	1109.857287936424	908.4083739297513	-137.4531359584863	1245.191516901517	795.5671990512351	-218.0726463892711	1202.347702694949	673.1495835749274	-155.9370203058693	1257.055100692888	512.8727286174089	-190.8553884485946	1310.840103428935	444.2278395326325	-250.9794256776024	1255.486791342854	335.3805493822192	-178.039096400846	1321.025142178567	236.4824379554416	-252.1522096258086	1300.223143427991	130.5727995342055	-221.9844043242457	1423.771155915717	118.9077921455925	-251.8237639362395	1402.355236916799	79.21429305723369	-212.3644830707471	1224.919334928845	88.65967571994618	-258.1495735930685	
